<?xml version="1.0" encoding="UTF-8" standalone="no"?>
<!DOCTYPE svg PUBLIC "-//W3C//DTD SVG 1.1//EN"
 "http://www.w3.org/Graphics/SVG/1.1/DTD/svg11.dtd">
<!-- Generated by graphviz version 2.50.0 (20211204.2007)
 -->
<!-- Pages: 1 -->
<svg width="326pt" height="1044pt"
 viewBox="0.00 0.00 326.00 1044.00" xmlns="http://www.w3.org/2000/svg" xmlns:xlink="http://www.w3.org/1999/xlink">
<g id="graph0" class="graph" transform="scale(1 1) rotate(0) translate(4 1040)">
<polygon fill="white" stroke="transparent" points="-4,4 -4,-1040 322,-1040 322,4 -4,4"/>
<!-- n1 -->
<g id="node1" class="node">
<title>n1</title>
<polygon fill="#810f7c" stroke="transparent" points="9,-1012 9,-1031 309,-1031 309,-1012 9,-1012"/>
<text text-anchor="start" x="106" y="-1017.8" font-family="Helvetica,sans-Serif" font-size="14.00">REPORTE MBR</text>
<polygon fill="#c9b5df" stroke="transparent" points="9,-993 9,-1012 135,-1012 135,-993 9,-993"/>
<text text-anchor="start" x="42.5" y="-998.8" font-family="Helvetica,sans-Serif" font-size="14.00">mbr_size</text>
<polygon fill="#c9b5df" stroke="transparent" points="135,-993 135,-1012 309,-1012 309,-993 135,-993"/>
<text text-anchor="start" x="137" y="-998.8" font-family="Helvetica,sans-Serif" font-size="14.00">10485760</text>
<polygon fill="#f7fcfd" stroke="transparent" points="9,-974 9,-993 135,-993 135,-974 9,-974"/>
<text text-anchor="start" x="12" y="-979.8" font-family="Helvetica,sans-Serif" font-size="14.00">mbr_creation_date</text>
<polygon fill="#f7fcfd" stroke="transparent" points="135,-974 135,-993 309,-993 309,-974 135,-974"/>
<text text-anchor="start" x="137" y="-979.8" font-family="Helvetica,sans-Serif" font-size="14.00">Tue, 17&#45;10&#45;2023 01:06:53</text>
<polygon fill="#c9b5df" stroke="transparent" points="9,-955 9,-974 135,-974 135,-955 9,-955"/>
<text text-anchor="start" x="11" y="-960.8" font-family="Helvetica,sans-Serif" font-size="14.00">mbr_dsk_signature</text>
<polygon fill="#c9b5df" stroke="transparent" points="135,-955 135,-974 309,-974 309,-955 135,-955"/>
<text text-anchor="start" x="137" y="-960.8" font-family="Helvetica,sans-Serif" font-size="14.00">725342419</text>
<polygon fill="#f7fcfd" stroke="transparent" points="9,-936 9,-955 135,-955 135,-936 9,-936"/>
<text text-anchor="start" x="34" y="-941.8" font-family="Helvetica,sans-Serif" font-size="14.00">mbr_dsk_fit</text>
<polygon fill="#f7fcfd" stroke="transparent" points="135,-936 135,-955 309,-955 309,-936 135,-936"/>
<text text-anchor="start" x="137" y="-941.8" font-family="Helvetica,sans-Serif" font-size="14.00">F</text>
<polygon fill="#810f7c" stroke="transparent" points="9,-917 9,-936 309,-936 309,-917 9,-917"/>
<text text-anchor="start" x="131.5" y="-922.8" font-family="Helvetica,sans-Serif" font-size="14.00">Particion</text>
<polygon fill="#c9b5df" stroke="transparent" points="9,-898 9,-917 135,-917 135,-898 9,-898"/>
<text text-anchor="start" x="37" y="-903.8" font-family="Helvetica,sans-Serif" font-size="14.00">part_status</text>
<polygon fill="#c9b5df" stroke="transparent" points="135,-898 135,-917 309,-917 309,-898 135,-898"/>
<text text-anchor="start" x="137" y="-903.8" font-family="Helvetica,sans-Serif" font-size="14.00">T</text>
<polygon fill="#f7fcfd" stroke="transparent" points="9,-879 9,-898 135,-898 135,-879 9,-879"/>
<text text-anchor="start" x="42" y="-884.8" font-family="Helvetica,sans-Serif" font-size="14.00">part_type</text>
<polygon fill="#f7fcfd" stroke="transparent" points="135,-879 135,-898 309,-898 309,-879 135,-879"/>
<text text-anchor="start" x="137" y="-884.8" font-family="Helvetica,sans-Serif" font-size="14.00">P</text>
<polygon fill="#c9b5df" stroke="transparent" points="9,-860 9,-879 135,-879 135,-860 9,-860"/>
<text text-anchor="start" x="50" y="-865.8" font-family="Helvetica,sans-Serif" font-size="14.00">part_fit</text>
<polygon fill="#c9b5df" stroke="transparent" points="135,-860 135,-879 309,-879 309,-860 135,-860"/>
<text text-anchor="start" x="137" y="-865.8" font-family="Helvetica,sans-Serif" font-size="14.00">W</text>
<polygon fill="#f7fcfd" stroke="transparent" points="9,-841 9,-860 135,-860 135,-841 9,-841"/>
<text text-anchor="start" x="42" y="-846.8" font-family="Helvetica,sans-Serif" font-size="14.00">part_start</text>
<polygon fill="#f7fcfd" stroke="transparent" points="135,-841 135,-860 309,-860 309,-841 135,-841"/>
<text text-anchor="start" x="137" y="-846.8" font-family="Helvetica,sans-Serif" font-size="14.00">161</text>
<polygon fill="#c9b5df" stroke="transparent" points="9,-822 9,-841 135,-841 135,-822 9,-822"/>
<text text-anchor="start" x="43" y="-827.8" font-family="Helvetica,sans-Serif" font-size="14.00">part_size</text>
<polygon fill="#c9b5df" stroke="transparent" points="135,-822 135,-841 309,-841 309,-822 135,-822"/>
<text text-anchor="start" x="137" y="-827.8" font-family="Helvetica,sans-Serif" font-size="14.00">307200</text>
<polygon fill="#f7fcfd" stroke="transparent" points="9,-803 9,-822 135,-822 135,-803 9,-803"/>
<text text-anchor="start" x="38" y="-808.8" font-family="Helvetica,sans-Serif" font-size="14.00">part_name</text>
<polygon fill="#f7fcfd" stroke="transparent" points="135,-803 135,-822 309,-822 309,-803 135,-803"/>
<text text-anchor="start" x="137" y="-808.8" font-family="Helvetica,sans-Serif" font-size="14.00">Particion1</text>
<polygon fill="#810f7c" stroke="transparent" points="9,-784 9,-803 309,-803 309,-784 9,-784"/>
<text text-anchor="start" x="131.5" y="-789.8" font-family="Helvetica,sans-Serif" font-size="14.00">Particion</text>
<polygon fill="#c9b5df" stroke="transparent" points="9,-765 9,-784 135,-784 135,-765 9,-765"/>
<text text-anchor="start" x="37" y="-770.8" font-family="Helvetica,sans-Serif" font-size="14.00">part_status</text>
<polygon fill="#c9b5df" stroke="transparent" points="135,-765 135,-784 309,-784 309,-765 135,-765"/>
<text text-anchor="start" x="137" y="-770.8" font-family="Helvetica,sans-Serif" font-size="14.00">T</text>
<polygon fill="#f7fcfd" stroke="transparent" points="9,-746 9,-765 135,-765 135,-746 9,-746"/>
<text text-anchor="start" x="42" y="-751.8" font-family="Helvetica,sans-Serif" font-size="14.00">part_type</text>
<polygon fill="#f7fcfd" stroke="transparent" points="135,-746 135,-765 309,-765 309,-746 135,-746"/>
<text text-anchor="start" x="137" y="-751.8" font-family="Helvetica,sans-Serif" font-size="14.00">P</text>
<polygon fill="#c9b5df" stroke="transparent" points="9,-727 9,-746 135,-746 135,-727 9,-727"/>
<text text-anchor="start" x="50" y="-732.8" font-family="Helvetica,sans-Serif" font-size="14.00">part_fit</text>
<polygon fill="#c9b5df" stroke="transparent" points="135,-727 135,-746 309,-746 309,-727 135,-727"/>
<text text-anchor="start" x="137" y="-732.8" font-family="Helvetica,sans-Serif" font-size="14.00">W</text>
<polygon fill="#f7fcfd" stroke="transparent" points="9,-708 9,-727 135,-727 135,-708 9,-708"/>
<text text-anchor="start" x="42" y="-713.8" font-family="Helvetica,sans-Serif" font-size="14.00">part_start</text>
<polygon fill="#f7fcfd" stroke="transparent" points="135,-708 135,-727 309,-727 309,-708 135,-708"/>
<text text-anchor="start" x="137" y="-713.8" font-family="Helvetica,sans-Serif" font-size="14.00">307361</text>
<polygon fill="#c9b5df" stroke="transparent" points="9,-689 9,-708 135,-708 135,-689 9,-689"/>
<text text-anchor="start" x="43" y="-694.8" font-family="Helvetica,sans-Serif" font-size="14.00">part_size</text>
<polygon fill="#c9b5df" stroke="transparent" points="135,-689 135,-708 309,-708 309,-689 135,-689"/>
<text text-anchor="start" x="137" y="-694.8" font-family="Helvetica,sans-Serif" font-size="14.00">5242880</text>
<polygon fill="#f7fcfd" stroke="transparent" points="9,-670 9,-689 135,-689 135,-670 9,-670"/>
<text text-anchor="start" x="38" y="-675.8" font-family="Helvetica,sans-Serif" font-size="14.00">part_name</text>
<polygon fill="#f7fcfd" stroke="transparent" points="135,-670 135,-689 309,-689 309,-670 135,-670"/>
<text text-anchor="start" x="137" y="-675.8" font-family="Helvetica,sans-Serif" font-size="14.00">Parti2</text>
<polygon fill="#810f7c" stroke="transparent" points="9,-651 9,-670 309,-670 309,-651 9,-651"/>
<text text-anchor="start" x="131.5" y="-656.8" font-family="Helvetica,sans-Serif" font-size="14.00">Particion</text>
<polygon fill="#c9b5df" stroke="transparent" points="9,-632 9,-651 135,-651 135,-632 9,-632"/>
<text text-anchor="start" x="37" y="-637.8" font-family="Helvetica,sans-Serif" font-size="14.00">part_status</text>
<polygon fill="#c9b5df" stroke="transparent" points="135,-632 135,-651 309,-651 309,-632 135,-632"/>
<text text-anchor="start" x="137" y="-637.8" font-family="Helvetica,sans-Serif" font-size="14.00">T</text>
<polygon fill="#f7fcfd" stroke="transparent" points="9,-613 9,-632 135,-632 135,-613 9,-613"/>
<text text-anchor="start" x="42" y="-618.8" font-family="Helvetica,sans-Serif" font-size="14.00">part_type</text>
<polygon fill="#f7fcfd" stroke="transparent" points="135,-613 135,-632 309,-632 309,-613 135,-613"/>
<text text-anchor="start" x="137" y="-618.8" font-family="Helvetica,sans-Serif" font-size="14.00">E</text>
<polygon fill="#c9b5df" stroke="transparent" points="9,-594 9,-613 135,-613 135,-594 9,-594"/>
<text text-anchor="start" x="50" y="-599.8" font-family="Helvetica,sans-Serif" font-size="14.00">part_fit</text>
<polygon fill="#c9b5df" stroke="transparent" points="135,-594 135,-613 309,-613 309,-594 135,-594"/>
<text text-anchor="start" x="137" y="-599.8" font-family="Helvetica,sans-Serif" font-size="14.00">W</text>
<polygon fill="#f7fcfd" stroke="transparent" points="9,-575 9,-594 135,-594 135,-575 9,-575"/>
<text text-anchor="start" x="42" y="-580.8" font-family="Helvetica,sans-Serif" font-size="14.00">part_start</text>
<polygon fill="#f7fcfd" stroke="transparent" points="135,-575 135,-594 309,-594 309,-575 135,-575"/>
<text text-anchor="start" x="137" y="-580.8" font-family="Helvetica,sans-Serif" font-size="14.00">5550241</text>
<polygon fill="#c9b5df" stroke="transparent" points="9,-556 9,-575 135,-575 135,-556 9,-556"/>
<text text-anchor="start" x="43" y="-561.8" font-family="Helvetica,sans-Serif" font-size="14.00">part_size</text>
<polygon fill="#c9b5df" stroke="transparent" points="135,-556 135,-575 309,-575 309,-556 135,-556"/>
<text text-anchor="start" x="137" y="-561.8" font-family="Helvetica,sans-Serif" font-size="14.00">4194304</text>
<polygon fill="#f7fcfd" stroke="transparent" points="9,-537 9,-556 135,-556 135,-537 9,-537"/>
<text text-anchor="start" x="38" y="-542.8" font-family="Helvetica,sans-Serif" font-size="14.00">part_name</text>
<polygon fill="#f7fcfd" stroke="transparent" points="135,-537 135,-556 309,-556 309,-537 135,-537"/>
<text text-anchor="start" x="137" y="-542.8" font-family="Helvetica,sans-Serif" font-size="14.00">Partic3</text>
<polygon fill="#d94801" stroke="transparent" points="9,-518 9,-537 309,-537 309,-518 9,-518"/>
<text text-anchor="start" x="108" y="-523.8" font-family="Helvetica,sans-Serif" font-size="14.00">Particion Logica</text>
<polygon fill="#fef9f5" stroke="transparent" points="9,-499 9,-518 135,-518 135,-499 9,-499"/>
<text text-anchor="start" x="37" y="-504.8" font-family="Helvetica,sans-Serif" font-size="14.00">part_status</text>
<polygon fill="#fef9f5" stroke="transparent" points="135,-499 135,-518 309,-518 309,-499 135,-499"/>
<text text-anchor="start" x="137" y="-504.8" font-family="Helvetica,sans-Serif" font-size="14.00">T</text>
<polygon fill="#fdd0a2" stroke="transparent" points="9,-480 9,-499 135,-499 135,-480 9,-480"/>
<text text-anchor="start" x="42.5" y="-485.8" font-family="Helvetica,sans-Serif" font-size="14.00">part_next</text>
<polygon fill="#fdd0a2" stroke="transparent" points="135,-480 135,-499 309,-499 309,-480 135,-480"/>
<text text-anchor="start" x="137" y="-485.8" font-family="Helvetica,sans-Serif" font-size="14.00">6598859</text>
<polygon fill="#fef9f5" stroke="transparent" points="9,-461 9,-480 135,-480 135,-461 9,-461"/>
<text text-anchor="start" x="50" y="-466.8" font-family="Helvetica,sans-Serif" font-size="14.00">part_fit</text>
<polygon fill="#fef9f5" stroke="transparent" points="135,-461 135,-480 309,-480 309,-461 135,-461"/>
<text text-anchor="start" x="137" y="-466.8" font-family="Helvetica,sans-Serif" font-size="14.00">B</text>
<polygon fill="#fdd0a2" stroke="transparent" points="9,-442 9,-461 135,-461 135,-442 9,-442"/>
<text text-anchor="start" x="42" y="-447.8" font-family="Helvetica,sans-Serif" font-size="14.00">part_start</text>
<polygon fill="#fdd0a2" stroke="transparent" points="135,-442 135,-461 309,-461 309,-442 135,-442"/>
<text text-anchor="start" x="137" y="-447.8" font-family="Helvetica,sans-Serif" font-size="14.00">5550283</text>
<polygon fill="#fef9f5" stroke="transparent" points="9,-423 9,-442 135,-442 135,-423 9,-423"/>
<text text-anchor="start" x="43" y="-428.8" font-family="Helvetica,sans-Serif" font-size="14.00">part_size</text>
<polygon fill="#fef9f5" stroke="transparent" points="135,-423 135,-442 309,-442 309,-423 135,-423"/>
<text text-anchor="start" x="137" y="-428.8" font-family="Helvetica,sans-Serif" font-size="14.00">1048576</text>
<polygon fill="#fdd0a2" stroke="transparent" points="9,-404 9,-423 135,-423 135,-404 9,-404"/>
<text text-anchor="start" x="38" y="-409.8" font-family="Helvetica,sans-Serif" font-size="14.00">part_name</text>
<polygon fill="#fdd0a2" stroke="transparent" points="135,-404 135,-423 309,-423 309,-404 135,-404"/>
<text text-anchor="start" x="137" y="-409.8" font-family="Helvetica,sans-Serif" font-size="14.00">PartL1</text>
<polygon fill="#d94801" stroke="transparent" points="9,-385 9,-404 309,-404 309,-385 9,-385"/>
<text text-anchor="start" x="108" y="-390.8" font-family="Helvetica,sans-Serif" font-size="14.00">Particion Logica</text>
<polygon fill="#fef9f5" stroke="transparent" points="9,-366 9,-385 135,-385 135,-366 9,-366"/>
<text text-anchor="start" x="37" y="-371.8" font-family="Helvetica,sans-Serif" font-size="14.00">part_status</text>
<polygon fill="#fef9f5" stroke="transparent" points="135,-366 135,-385 309,-385 309,-366 135,-366"/>
<text text-anchor="start" x="137" y="-371.8" font-family="Helvetica,sans-Serif" font-size="14.00">T</text>
<polygon fill="#fdd0a2" stroke="transparent" points="9,-347 9,-366 135,-366 135,-347 9,-347"/>
<text text-anchor="start" x="42.5" y="-352.8" font-family="Helvetica,sans-Serif" font-size="14.00">part_next</text>
<polygon fill="#fdd0a2" stroke="transparent" points="135,-347 135,-366 309,-366 309,-347 135,-347"/>
<text text-anchor="start" x="137" y="-352.8" font-family="Helvetica,sans-Serif" font-size="14.00">7647477</text>
<polygon fill="#fef9f5" stroke="transparent" points="9,-328 9,-347 135,-347 135,-328 9,-328"/>
<text text-anchor="start" x="50" y="-333.8" font-family="Helvetica,sans-Serif" font-size="14.00">part_fit</text>
<polygon fill="#fef9f5" stroke="transparent" points="135,-328 135,-347 309,-347 309,-328 135,-328"/>
<text text-anchor="start" x="137" y="-333.8" font-family="Helvetica,sans-Serif" font-size="14.00">B</text>
<polygon fill="#fdd0a2" stroke="transparent" points="9,-309 9,-328 135,-328 135,-309 9,-309"/>
<text text-anchor="start" x="42" y="-314.8" font-family="Helvetica,sans-Serif" font-size="14.00">part_start</text>
<polygon fill="#fdd0a2" stroke="transparent" points="135,-309 135,-328 309,-328 309,-309 135,-309"/>
<text text-anchor="start" x="137" y="-314.8" font-family="Helvetica,sans-Serif" font-size="14.00">6598901</text>
<polygon fill="#fef9f5" stroke="transparent" points="9,-290 9,-309 135,-309 135,-290 9,-290"/>
<text text-anchor="start" x="43" y="-295.8" font-family="Helvetica,sans-Serif" font-size="14.00">part_size</text>
<polygon fill="#fef9f5" stroke="transparent" points="135,-290 135,-309 309,-309 309,-290 135,-290"/>
<text text-anchor="start" x="137" y="-295.8" font-family="Helvetica,sans-Serif" font-size="14.00">1048576</text>
<polygon fill="#fdd0a2" stroke="transparent" points="9,-271 9,-290 135,-290 135,-271 9,-271"/>
<text text-anchor="start" x="38" y="-276.8" font-family="Helvetica,sans-Serif" font-size="14.00">part_name</text>
<polygon fill="#fdd0a2" stroke="transparent" points="135,-271 135,-290 309,-290 309,-271 135,-271"/>
<text text-anchor="start" x="137" y="-276.8" font-family="Helvetica,sans-Serif" font-size="14.00">PartL2</text>
<polygon fill="#d94801" stroke="transparent" points="9,-252 9,-271 309,-271 309,-252 9,-252"/>
<text text-anchor="start" x="108" y="-257.8" font-family="Helvetica,sans-Serif" font-size="14.00">Particion Logica</text>
<polygon fill="#fef9f5" stroke="transparent" points="9,-233 9,-252 135,-252 135,-233 9,-233"/>
<text text-anchor="start" x="37" y="-238.8" font-family="Helvetica,sans-Serif" font-size="14.00">part_status</text>
<polygon fill="#fef9f5" stroke="transparent" points="135,-233 135,-252 309,-252 309,-233 135,-233"/>
<text text-anchor="start" x="137" y="-238.8" font-family="Helvetica,sans-Serif" font-size="14.00">T</text>
<polygon fill="#fdd0a2" stroke="transparent" points="9,-214 9,-233 135,-233 135,-214 9,-214"/>
<text text-anchor="start" x="42.5" y="-219.8" font-family="Helvetica,sans-Serif" font-size="14.00">part_next</text>
<polygon fill="#fdd0a2" stroke="transparent" points="135,-214 135,-233 309,-233 309,-214 135,-214"/>
<text text-anchor="start" x="137" y="-219.8" font-family="Helvetica,sans-Serif" font-size="14.00">0</text>
<polygon fill="#fef9f5" stroke="transparent" points="9,-195 9,-214 135,-214 135,-195 9,-195"/>
<text text-anchor="start" x="50" y="-200.8" font-family="Helvetica,sans-Serif" font-size="14.00">part_fit</text>
<polygon fill="#fef9f5" stroke="transparent" points="135,-195 135,-214 309,-214 309,-195 135,-195"/>
<text text-anchor="start" x="137" y="-200.8" font-family="Helvetica,sans-Serif" font-size="14.00">B</text>
<polygon fill="#fdd0a2" stroke="transparent" points="9,-176 9,-195 135,-195 135,-176 9,-176"/>
<text text-anchor="start" x="42" y="-181.8" font-family="Helvetica,sans-Serif" font-size="14.00">part_start</text>
<polygon fill="#fdd0a2" stroke="transparent" points="135,-176 135,-195 309,-195 309,-176 135,-176"/>
<text text-anchor="start" x="137" y="-181.8" font-family="Helvetica,sans-Serif" font-size="14.00">7647519</text>
<polygon fill="#fef9f5" stroke="transparent" points="9,-157 9,-176 135,-176 135,-157 9,-157"/>
<text text-anchor="start" x="43" y="-162.8" font-family="Helvetica,sans-Serif" font-size="14.00">part_size</text>
<polygon fill="#fef9f5" stroke="transparent" points="135,-157 135,-176 309,-176 309,-157 135,-157"/>
<text text-anchor="start" x="137" y="-162.8" font-family="Helvetica,sans-Serif" font-size="14.00">2048000</text>
<polygon fill="#fdd0a2" stroke="transparent" points="9,-138 9,-157 135,-157 135,-138 9,-138"/>
<text text-anchor="start" x="38" y="-143.8" font-family="Helvetica,sans-Serif" font-size="14.00">part_name</text>
<polygon fill="#fdd0a2" stroke="transparent" points="135,-138 135,-157 309,-157 309,-138 135,-138"/>
<text text-anchor="start" x="137" y="-143.8" font-family="Helvetica,sans-Serif" font-size="14.00">PartL3</text>
<polygon fill="#810f7c" stroke="transparent" points="9,-119 9,-138 309,-138 309,-119 9,-119"/>
<text text-anchor="start" x="131.5" y="-124.8" font-family="Helvetica,sans-Serif" font-size="14.00">Particion</text>
<polygon fill="#c9b5df" stroke="transparent" points="9,-100 9,-119 135,-119 135,-100 9,-100"/>
<text text-anchor="start" x="37" y="-105.8" font-family="Helvetica,sans-Serif" font-size="14.00">part_status</text>
<polygon fill="#c9b5df" stroke="transparent" points="135,-100 135,-119 309,-119 309,-100 135,-100"/>
<text text-anchor="start" x="137" y="-105.8" font-family="Helvetica,sans-Serif" font-size="14.00">F</text>
<polygon fill="#f7fcfd" stroke="transparent" points="9,-81 9,-100 135,-100 135,-81 9,-81"/>
<text text-anchor="start" x="42" y="-86.8" font-family="Helvetica,sans-Serif" font-size="14.00">part_type</text>
<polygon fill="#f7fcfd" stroke="transparent" points="135,-81 135,-100 309,-100 309,-81 135,-81"/>
<text text-anchor="start" x="137" y="-86.8" font-family="Helvetica,sans-Serif" font-size="14.00">P</text>
<polygon fill="#c9b5df" stroke="transparent" points="9,-62 9,-81 135,-81 135,-62 9,-62"/>
<text text-anchor="start" x="50" y="-67.8" font-family="Helvetica,sans-Serif" font-size="14.00">part_fit</text>
<polygon fill="#c9b5df" stroke="transparent" points="135,-62 135,-81 309,-81 309,-62 135,-62"/>
<text text-anchor="start" x="137" y="-67.8" font-family="Helvetica,sans-Serif" font-size="14.00">W</text>
<polygon fill="#f7fcfd" stroke="transparent" points="9,-43 9,-62 135,-62 135,-43 9,-43"/>
<text text-anchor="start" x="42" y="-48.8" font-family="Helvetica,sans-Serif" font-size="14.00">part_start</text>
<polygon fill="#f7fcfd" stroke="transparent" points="135,-43 135,-62 309,-62 309,-43 135,-43"/>
<text text-anchor="start" x="137" y="-48.8" font-family="Helvetica,sans-Serif" font-size="14.00">0</text>
<polygon fill="#c9b5df" stroke="transparent" points="9,-24 9,-43 135,-43 135,-24 9,-24"/>
<text text-anchor="start" x="43" y="-29.8" font-family="Helvetica,sans-Serif" font-size="14.00">part_size</text>
<polygon fill="#c9b5df" stroke="transparent" points="135,-24 135,-43 309,-43 309,-24 135,-24"/>
<text text-anchor="start" x="137" y="-29.8" font-family="Helvetica,sans-Serif" font-size="14.00">0</text>
<polygon fill="#f7fcfd" stroke="transparent" points="9,-5 9,-24 135,-24 135,-5 9,-5"/>
<text text-anchor="start" x="38" y="-10.8" font-family="Helvetica,sans-Serif" font-size="14.00">part_name</text>
<polygon fill="#f7fcfd" stroke="transparent" points="135,-5 135,-24 309,-24 309,-5 135,-5"/>
<text text-anchor="start" x="137" y="-10.8" font-family="Helvetica,sans-Serif" font-size="14.00">&#45;</text>
<polygon fill="none" stroke="black" points="8,-4 8,-1032 310,-1032 310,-4 8,-4"/>
</g>
</g>
</svg>
