<?xml version="1.0" encoding="UTF-8" standalone="no"?>
<!DOCTYPE svg PUBLIC "-//W3C//DTD SVG 1.1//EN"
 "http://www.w3.org/Graphics/SVG/1.1/DTD/svg11.dtd">
<!-- Generated by graphviz version 2.50.0 (20211204.2007)
 -->
<!-- Pages: 1 -->
<svg width="326pt" height="417pt"
 viewBox="0.00 0.00 326.00 417.00" xmlns="http://www.w3.org/2000/svg" xmlns:xlink="http://www.w3.org/1999/xlink">
<g id="graph0" class="graph" transform="scale(1 1) rotate(0) translate(4 413)">
<polygon fill="white" stroke="transparent" points="-4,4 -4,-413 322,-413 322,4 -4,4"/>
<!-- n1 -->
<g id="node1" class="node">
<title>n1</title>
<polygon fill="#238b45" stroke="transparent" points="9,-384.5 9,-403.5 309,-403.5 309,-384.5 9,-384.5"/>
<text text-anchor="start" x="30" y="-390.3" font-family="Helvetica,sans-Serif" font-size="14.00">REPORTE SUPERBLOQUE 891Disco1</text>
<polygon fill="#74c476" stroke="transparent" points="9,-365.5 9,-384.5 159,-384.5 159,-365.5 9,-365.5"/>
<text text-anchor="start" x="35.5" y="-371.3" font-family="Helvetica,sans-Serif" font-size="14.00">sb_nombre_hd</text>
<polygon fill="#74c476" stroke="transparent" points="159,-365.5 159,-384.5 309,-384.5 309,-365.5 159,-365.5"/>
<text text-anchor="start" x="161" y="-371.3" font-family="Helvetica,sans-Serif" font-size="14.00">Disco1.dsk</text>
<polygon fill="#edf8e9" stroke="transparent" points="9,-346.5 9,-365.5 159,-365.5 159,-346.5 9,-346.5"/>
<text text-anchor="start" x="26" y="-352.3" font-family="Helvetica,sans-Serif" font-size="14.00">s_filesystem_type</text>
<polygon fill="#edf8e9" stroke="transparent" points="159,-346.5 159,-365.5 309,-365.5 309,-346.5 159,-346.5"/>
<text text-anchor="start" x="161" y="-352.3" font-family="Helvetica,sans-Serif" font-size="14.00">EXT2</text>
<polygon fill="#74c476" stroke="transparent" points="9,-327.5 9,-346.5 159,-346.5 159,-327.5 9,-327.5"/>
<text text-anchor="start" x="33" y="-333.3" font-family="Helvetica,sans-Serif" font-size="14.00">s_inodes_count</text>
<polygon fill="#74c476" stroke="transparent" points="159,-327.5 159,-346.5 309,-346.5 309,-327.5 159,-327.5"/>
<text text-anchor="start" x="161" y="-333.3" font-family="Helvetica,sans-Serif" font-size="14.00">17417</text>
<polygon fill="#edf8e9" stroke="transparent" points="9,-308.5 9,-327.5 159,-327.5 159,-308.5 9,-308.5"/>
<text text-anchor="start" x="34" y="-314.3" font-family="Helvetica,sans-Serif" font-size="14.00">s_blocks_count</text>
<polygon fill="#edf8e9" stroke="transparent" points="159,-308.5 159,-327.5 309,-327.5 309,-308.5 159,-308.5"/>
<text text-anchor="start" x="161" y="-314.3" font-family="Helvetica,sans-Serif" font-size="14.00">52251</text>
<polygon fill="#74c476" stroke="transparent" points="9,-289.5 9,-308.5 159,-308.5 159,-289.5 9,-289.5"/>
<text text-anchor="start" x="16" y="-295.3" font-family="Helvetica,sans-Serif" font-size="14.00">s_free_inodes_count</text>
<polygon fill="#74c476" stroke="transparent" points="159,-289.5 159,-308.5 309,-308.5 309,-289.5 159,-289.5"/>
<text text-anchor="start" x="161" y="-295.3" font-family="Helvetica,sans-Serif" font-size="14.00">17407</text>
<polygon fill="#edf8e9" stroke="transparent" points="9,-270.5 9,-289.5 159,-289.5 159,-270.5 9,-270.5"/>
<text text-anchor="start" x="17" y="-276.3" font-family="Helvetica,sans-Serif" font-size="14.00">s_free_blocks_count</text>
<polygon fill="#edf8e9" stroke="transparent" points="159,-270.5 159,-289.5 309,-289.5 309,-270.5 159,-270.5"/>
<text text-anchor="start" x="161" y="-276.3" font-family="Helvetica,sans-Serif" font-size="14.00">52219</text>
<polygon fill="#74c476" stroke="transparent" points="9,-251.5 9,-270.5 159,-270.5 159,-251.5 9,-251.5"/>
<text text-anchor="start" x="38.5" y="-257.3" font-family="Helvetica,sans-Serif" font-size="14.00">s_mount_time</text>
<polygon fill="#74c476" stroke="transparent" points="159,-251.5 159,-270.5 309,-270.5 309,-251.5 159,-251.5"/>
<text text-anchor="start" x="161" y="-257.3" font-family="Helvetica,sans-Serif" font-size="14.00">2023&#45;10&#45;17 07:06:53</text>
<polygon fill="#edf8e9" stroke="transparent" points="9,-232.5 9,-251.5 159,-251.5 159,-232.5 9,-232.5"/>
<text text-anchor="start" x="31" y="-238.3" font-family="Helvetica,sans-Serif" font-size="14.00">s_unmount_time</text>
<polygon fill="#edf8e9" stroke="transparent" points="159,-232.5 159,-251.5 309,-251.5 309,-232.5 159,-232.5"/>
<text text-anchor="start" x="161" y="-238.3" font-family="Helvetica,sans-Serif" font-size="14.00">2023&#45;10&#45;17 07:06:53</text>
<polygon fill="#74c476" stroke="transparent" points="9,-213.5 9,-232.5 159,-232.5 159,-213.5 9,-213.5"/>
<text text-anchor="start" x="43" y="-219.3" font-family="Helvetica,sans-Serif" font-size="14.00">s_mnt_count</text>
<polygon fill="#74c476" stroke="transparent" points="159,-213.5 159,-232.5 309,-232.5 309,-213.5 159,-213.5"/>
<text text-anchor="start" x="161" y="-219.3" font-family="Helvetica,sans-Serif" font-size="14.00">0</text>
<polygon fill="#edf8e9" stroke="transparent" points="9,-194.5 9,-213.5 159,-213.5 159,-194.5 9,-194.5"/>
<text text-anchor="start" x="56.5" y="-200.3" font-family="Helvetica,sans-Serif" font-size="14.00">s_magic</text>
<polygon fill="#edf8e9" stroke="transparent" points="159,-194.5 159,-213.5 309,-213.5 309,-194.5 159,-194.5"/>
<text text-anchor="start" x="161" y="-200.3" font-family="Helvetica,sans-Serif" font-size="14.00">0xEF53</text>
<polygon fill="#74c476" stroke="transparent" points="9,-175.5 9,-194.5 159,-194.5 159,-175.5 9,-175.5"/>
<text text-anchor="start" x="41.5" y="-181.3" font-family="Helvetica,sans-Serif" font-size="14.00">s_inode_size</text>
<polygon fill="#74c476" stroke="transparent" points="159,-175.5 159,-194.5 309,-194.5 309,-175.5 159,-175.5"/>
<text text-anchor="start" x="161" y="-181.3" font-family="Helvetica,sans-Serif" font-size="14.00">105</text>
<polygon fill="#edf8e9" stroke="transparent" points="9,-156.5 9,-175.5 159,-175.5 159,-156.5 9,-156.5"/>
<text text-anchor="start" x="42" y="-162.3" font-family="Helvetica,sans-Serif" font-size="14.00">s_block_size</text>
<polygon fill="#edf8e9" stroke="transparent" points="159,-156.5 159,-175.5 309,-175.5 309,-156.5 159,-156.5"/>
<text text-anchor="start" x="161" y="-162.3" font-family="Helvetica,sans-Serif" font-size="14.00">64</text>
<polygon fill="#74c476" stroke="transparent" points="9,-137.5 9,-156.5 159,-156.5 159,-137.5 9,-137.5"/>
<text text-anchor="start" x="40.5" y="-143.3" font-family="Helvetica,sans-Serif" font-size="14.00">s_inode_start</text>
<polygon fill="#74c476" stroke="transparent" points="159,-137.5 159,-156.5 309,-156.5 309,-137.5 159,-137.5"/>
<text text-anchor="start" x="161" y="-143.3" font-family="Helvetica,sans-Serif" font-size="14.00">377121</text>
<polygon fill="#edf8e9" stroke="transparent" points="9,-118.5 9,-137.5 159,-137.5 159,-118.5 9,-118.5"/>
<text text-anchor="start" x="41.5" y="-124.3" font-family="Helvetica,sans-Serif" font-size="14.00">s_block_start</text>
<polygon fill="#edf8e9" stroke="transparent" points="159,-118.5 159,-137.5 309,-137.5 309,-118.5 159,-118.5"/>
<text text-anchor="start" x="161" y="-124.3" font-family="Helvetica,sans-Serif" font-size="14.00">2205906</text>
<polygon fill="#74c476" stroke="transparent" points="9,-99.5 9,-118.5 159,-118.5 159,-99.5 9,-99.5"/>
<text text-anchor="start" x="42.5" y="-105.3" font-family="Helvetica,sans-Serif" font-size="14.00">s_first_inode</text>
<polygon fill="#74c476" stroke="transparent" points="159,-99.5 159,-118.5 309,-118.5 309,-99.5 159,-99.5"/>
<text text-anchor="start" x="161" y="-105.3" font-family="Helvetica,sans-Serif" font-size="14.00">10</text>
<polygon fill="#edf8e9" stroke="transparent" points="9,-80.5 9,-99.5 159,-99.5 159,-80.5 9,-80.5"/>
<text text-anchor="start" x="43" y="-86.3" font-family="Helvetica,sans-Serif" font-size="14.00">s_first_block</text>
<polygon fill="#edf8e9" stroke="transparent" points="159,-80.5 159,-99.5 309,-99.5 309,-80.5 159,-80.5"/>
<text text-anchor="start" x="161" y="-86.3" font-family="Helvetica,sans-Serif" font-size="14.00">32</text>
<polygon fill="#74c476" stroke="transparent" points="9,-61.5 9,-80.5 159,-80.5 159,-61.5 9,-61.5"/>
<text text-anchor="start" x="26.5" y="-67.3" font-family="Helvetica,sans-Serif" font-size="14.00">s_bm_inode_start</text>
<polygon fill="#74c476" stroke="transparent" points="159,-61.5 159,-80.5 309,-80.5 309,-61.5 159,-61.5"/>
<text text-anchor="start" x="161" y="-67.3" font-family="Helvetica,sans-Serif" font-size="14.00">307453</text>
<polygon fill="#edf8e9" stroke="transparent" points="9,-42.5 9,-61.5 159,-61.5 159,-42.5 9,-42.5"/>
<text text-anchor="start" x="27" y="-48.3" font-family="Helvetica,sans-Serif" font-size="14.00">s_bm_block_start</text>
<polygon fill="#edf8e9" stroke="transparent" points="159,-42.5 159,-61.5 309,-61.5 309,-42.5 159,-42.5"/>
<text text-anchor="start" x="161" y="-48.3" font-family="Helvetica,sans-Serif" font-size="14.00">324870</text>
<polygon fill="#74c476" stroke="transparent" points="9,-23.5 9,-42.5 159,-42.5 159,-23.5 9,-23.5"/>
<text text-anchor="start" x="40.5" y="-29.3" font-family="Helvetica,sans-Serif" font-size="14.00">s_inode_start</text>
<polygon fill="#74c476" stroke="transparent" points="159,-23.5 159,-42.5 309,-42.5 309,-23.5 159,-23.5"/>
<text text-anchor="start" x="161" y="-29.3" font-family="Helvetica,sans-Serif" font-size="14.00">377121</text>
<polygon fill="#edf8e9" stroke="transparent" points="9,-4.5 9,-23.5 159,-23.5 159,-4.5 9,-4.5"/>
<text text-anchor="start" x="41.5" y="-10.3" font-family="Helvetica,sans-Serif" font-size="14.00">s_block_start</text>
<polygon fill="#edf8e9" stroke="transparent" points="159,-4.5 159,-23.5 309,-23.5 309,-4.5 159,-4.5"/>
<text text-anchor="start" x="161" y="-10.3" font-family="Helvetica,sans-Serif" font-size="14.00">2205906</text>
<polygon fill="none" stroke="black" points="8,-4 8,-405 310,-405 310,-4 8,-4"/>
</g>
</g>
</svg>
