<?xml version="1.0" encoding="UTF-8" standalone="no"?>
<!DOCTYPE svg PUBLIC "-//W3C//DTD SVG 1.1//EN"
 "http://www.w3.org/Graphics/SVG/1.1/DTD/svg11.dtd">
<!-- Generated by graphviz version 2.50.0 (20211204.2007)
 -->
<!-- Pages: 1 -->
<svg width="3916pt" height="85pt"
 viewBox="0.00 0.00 3916.00 85.00" xmlns="http://www.w3.org/2000/svg" xmlns:xlink="http://www.w3.org/1999/xlink">
<g id="graph0" class="graph" transform="scale(1 1) rotate(0) translate(4 81)">
<polygon fill="white" stroke="transparent" points="-4,4 -4,-81 3912,-81 3912,4 -4,4"/>
<!-- n1 -->
<g id="node1" class="node">
<title>n1</title>
<polygon fill="yellow" stroke="transparent" points="11,-6.5 11,-69.5 132,-69.5 132,-6.5 11,-6.5"/>
<polygon fill="none" stroke="black" points="11,-6.5 11,-69.5 132,-69.5 132,-6.5 11,-6.5"/>
<text text-anchor="start" x="55.5" y="-49.3" font-family="Helvetica,sans-Serif" font-size="14.00">MBR</text>
<text text-anchor="start" x="41.5" y="-34.3" font-family="Helvetica,sans-Serif" font-size="14.00">161bytes</text>
<text text-anchor="start" x="14" y="-19.3" font-family="Helvetica,sans-Serif" font-size="14.00">0.002% del disco </text>
<polygon fill="darkgreen" stroke="transparent" points="134,-6.5 134,-69.5 247,-69.5 247,-6.5 134,-6.5"/>
<polygon fill="none" stroke="black" points="134,-6.5 134,-69.5 247,-69.5 247,-6.5 134,-6.5"/>
<text text-anchor="start" x="158.5" y="-49.3" font-family="Helvetica,sans-Serif" font-size="14.00">Particion1</text>
<text text-anchor="start" x="148" y="-34.3" font-family="Helvetica,sans-Serif" font-size="14.00">307200bytes</text>
<text text-anchor="start" x="137" y="-19.3" font-family="Helvetica,sans-Serif" font-size="14.00">2.93% del disco </text>
<polygon fill="darkgreen" stroke="transparent" points="249,-6.5 249,-69.5 1749,-69.5 1749,-6.5 249,-6.5"/>
<polygon fill="none" stroke="black" points="249,-6.5 249,-69.5 1749,-69.5 1749,-6.5 249,-6.5"/>
<text text-anchor="start" x="980.5" y="-49.3" font-family="Helvetica,sans-Serif" font-size="14.00">Parti2</text>
<text text-anchor="start" x="952.5" y="-34.3" font-family="Helvetica,sans-Serif" font-size="14.00">5242880bytes</text>
<text text-anchor="start" x="951.5" y="-19.3" font-family="Helvetica,sans-Serif" font-size="14.00">50% del disco </text>
<polygon fill="none" stroke="black" points="1751,-6.5 1751,-69.5 3683,-69.5 3683,-6.5 1751,-6.5"/>
<polygon fill="#458b74" stroke="transparent" points="1757,-12.5 1757,-63.5 1907,-63.5 1907,-12.5 1757,-12.5"/>
<polygon fill="none" stroke="black" points="1757,-12.5 1757,-63.5 1907,-63.5 1907,-12.5 1757,-12.5"/>
<text text-anchor="start" x="1809.5" y="-49.3" font-family="Helvetica,sans-Serif" font-size="14.00">Partic3</text>
<text text-anchor="start" x="1785.5" y="-34.3" font-family="Helvetica,sans-Serif" font-size="14.00">4194304bytes</text>
<text text-anchor="start" x="1784.5" y="-19.3" font-family="Helvetica,sans-Serif" font-size="14.00">40% del disco </text>
<polygon fill="aquamarine" stroke="transparent" points="1909,-12.5 1909,-63.5 2059,-63.5 2059,-12.5 1909,-12.5"/>
<polygon fill="none" stroke="black" points="1909,-12.5 1909,-63.5 2059,-63.5 2059,-12.5 1909,-12.5"/>
<text text-anchor="start" x="1968.5" y="-41.8" font-family="Helvetica,sans-Serif" font-size="14.00">EBR</text>
<text text-anchor="start" x="1940.5" y="-26.8" font-family="Helvetica,sans-Serif" font-size="14.00">0% del disco </text>
<polygon fill="orange" stroke="transparent" points="2061,-12.5 2061,-63.5 2361,-63.5 2361,-12.5 2061,-12.5"/>
<polygon fill="none" stroke="black" points="2061,-12.5 2061,-63.5 2361,-63.5 2361,-12.5 2061,-12.5"/>
<text text-anchor="start" x="2189.5" y="-49.3" font-family="Helvetica,sans-Serif" font-size="14.00">PartL1</text>
<text text-anchor="start" x="2161" y="-34.3" font-family="Helvetica,sans-Serif" font-size="14.00">1048576 bytes </text>
<text text-anchor="start" x="2163.5" y="-19.3" font-family="Helvetica,sans-Serif" font-size="14.00">10% del disco </text>
<polygon fill="aquamarine" stroke="transparent" points="2363,-12.5 2363,-63.5 2513,-63.5 2513,-12.5 2363,-12.5"/>
<polygon fill="none" stroke="black" points="2363,-12.5 2363,-63.5 2513,-63.5 2513,-12.5 2363,-12.5"/>
<text text-anchor="start" x="2422.5" y="-41.8" font-family="Helvetica,sans-Serif" font-size="14.00">EBR</text>
<text text-anchor="start" x="2394.5" y="-26.8" font-family="Helvetica,sans-Serif" font-size="14.00">0% del disco </text>
<polygon fill="orange" stroke="transparent" points="2515,-12.5 2515,-63.5 2815,-63.5 2815,-12.5 2515,-12.5"/>
<polygon fill="none" stroke="black" points="2515,-12.5 2515,-63.5 2815,-63.5 2815,-12.5 2515,-12.5"/>
<text text-anchor="start" x="2643.5" y="-49.3" font-family="Helvetica,sans-Serif" font-size="14.00">PartL2</text>
<text text-anchor="start" x="2616.5" y="-34.3" font-family="Helvetica,sans-Serif" font-size="14.00">1048576 bytes</text>
<text text-anchor="start" x="2617.5" y="-19.3" font-family="Helvetica,sans-Serif" font-size="14.00">10% del disco </text>
<polygon fill="aquamarine" stroke="transparent" points="2817,-12.5 2817,-63.5 2967,-63.5 2967,-12.5 2817,-12.5"/>
<polygon fill="none" stroke="black" points="2817,-12.5 2817,-63.5 2967,-63.5 2967,-12.5 2817,-12.5"/>
<text text-anchor="start" x="2876.5" y="-41.8" font-family="Helvetica,sans-Serif" font-size="14.00">EBR</text>
<text text-anchor="start" x="2848.5" y="-26.8" font-family="Helvetica,sans-Serif" font-size="14.00">0% del disco </text>
<polygon fill="orange" stroke="transparent" points="2969,-12.5 2969,-63.5 3554,-63.5 3554,-12.5 2969,-12.5"/>
<polygon fill="none" stroke="black" points="2969,-12.5 2969,-63.5 3554,-63.5 3554,-12.5 2969,-12.5"/>
<text text-anchor="start" x="3240" y="-49.3" font-family="Helvetica,sans-Serif" font-size="14.00">PartL3</text>
<text text-anchor="start" x="3213" y="-34.3" font-family="Helvetica,sans-Serif" font-size="14.00">2048000 bytes</text>
<text text-anchor="start" x="3199.5" y="-19.3" font-family="Helvetica,sans-Serif" font-size="14.00">19.531% del disco </text>
<polygon fill="lightgray" stroke="transparent" points="3556,-12.5 3556,-63.5 3677,-63.5 3677,-12.5 3556,-12.5"/>
<polygon fill="none" stroke="black" points="3556,-12.5 3556,-63.5 3677,-63.5 3677,-12.5 3556,-12.5"/>
<text text-anchor="start" x="3603.5" y="-49.3" font-family="Helvetica,sans-Serif" font-size="14.00">free</text>
<text text-anchor="start" x="3578.5" y="-34.3" font-family="Helvetica,sans-Serif" font-size="14.00">49026bytes</text>
<text text-anchor="start" x="3559" y="-19.3" font-family="Helvetica,sans-Serif" font-size="14.00">0.468% del disco </text>
<polygon fill="none" stroke="black" points="1754,-9.5 1754,-66.5 3680,-66.5 3680,-9.5 1754,-9.5"/>
<polygon fill="lightgray" stroke="transparent" points="3685,-6.5 3685,-69.5 3897,-69.5 3897,-6.5 3685,-6.5"/>
<polygon fill="none" stroke="black" points="3685,-6.5 3685,-69.5 3897,-69.5 3897,-6.5 3685,-6.5"/>
<text text-anchor="start" x="3778" y="-49.3" font-family="Helvetica,sans-Serif" font-size="14.00">free</text>
<text text-anchor="start" x="3748.5" y="-34.3" font-family="Helvetica,sans-Serif" font-size="14.00">741215bytes</text>
<text text-anchor="start" x="3733.5" y="-19.3" font-family="Helvetica,sans-Serif" font-size="14.00">7.069% del disco </text>
<polygon fill="none" stroke="black" points="8,-4 8,-73 3900,-73 3900,-4 8,-4"/>
</g>
</g>
</svg>
